<svg width="223" height="100" viewBox="0 0 223 100" fill="none" xmlns="http://www.w3.org/2000/svg">
<path d="M78.0109 9.87748L59.1211 13.194L63.8075 7.57033L77.6504 4.75849L81.1111 0.648881L84.9324 0L85.5813 3.82122L82.9136 8.43551L85.0044 22.3505L81.3274 28.7673L78.0109 9.87748Z" fill="#174286"/>
<path d="M56.7406 56.1655L77.6492 26.2447L76.135 17.5929L56.7406 45.2066L39.0765 20.1163C36.4089 16.2951 32.0108 13.8438 27.036 13.8438C18.8889 13.8438 12.2559 20.4768 12.2559 28.6239C12.2559 36.7711 18.8889 43.4041 27.036 43.4041C32.2992 43.4041 36.8415 40.6644 39.5091 36.5548L35.3274 30.5706C34.4622 34.3197 31.0735 37.1315 27.036 37.1315C22.3496 37.1315 18.5285 33.3103 18.5285 28.6239C18.5285 23.9375 22.3496 20.1163 27.036 20.1163C29.92 20.1163 32.4435 21.5583 34.0296 23.7212L56.7406 56.1655Z" fill="#D90D2D"/>
<path d="M56.7415 34.8975L71.3054 14.1332L62.5815 15.6472L56.6693 24.0828L49.0269 13.1238C44.1242 6.20235 36.1213 1.66016 26.9648 1.66016C12.1126 1.66016 0 13.7006 0 28.625C0 43.4772 12.0405 55.5898 26.9648 55.5898C34.7515 55.5898 41.8171 52.2732 46.7198 46.938L43.0428 41.6748C39.2216 46.3612 33.4537 49.3172 26.9648 49.3172C15.5012 49.3172 6.27262 40.0165 6.27262 28.625C6.27262 17.3055 16.0059 7.93272 26.9648 7.93272C33.9584 7.93272 40.1588 11.3934 43.908 16.7287L56.7415 34.8975Z" fill="#00785A"/>
<path d="M215.933 25.1602L205.911 45.4919L195.889 25.1602H189.473L205.911 56.0904L222.35 25.1602H215.933Z" fill="#174286"/>
<path d="M138.213 30.4969C143.188 30.4969 147.226 34.5344 147.226 39.5092V55.3709H152.417V39.1487C152.417 31.29 146.072 24.9453 138.213 24.9453C130.354 24.9453 124.01 31.29 124.01 39.1487V55.3709H129.201V39.5092C129.129 34.5344 133.238 30.4969 138.213 30.4969Z" fill="#174286"/>
<path d="M102.885 25.2344C94.5214 25.2344 87.7441 32.0116 87.7441 40.375C87.7441 48.7385 94.5935 55.5878 102.957 55.5878C108.797 55.5878 114.276 51.9829 116.728 46.6476L116.8 46.5034H111.032L110.96 46.5755C109.229 48.9547 106.201 50.3246 102.813 50.3246C98.7751 50.3246 95.3144 48.3059 93.8003 45.0614L93.7283 44.8451C93.0073 43.4753 92.8631 41.8891 92.8631 40.375C92.8631 38.6447 93.2236 37.1306 93.8725 35.8328C95.3866 32.5163 98.7031 30.5697 102.885 30.5697C107.499 30.5697 111.032 33.021 112.474 37.2748L112.618 37.7074H97.6216C97.6216 37.7074 97.3332 38.5726 97.3332 40.3029C97.3332 41.3844 97.5495 42.2496 97.5495 42.3217H118.098V41.5286C118.025 38.0679 117.881 36.9864 117.088 34.8956C114.997 29.1998 109.157 25.2344 102.885 25.2344Z" fill="#174286"/>
<path d="M173.254 30.5711C178.589 30.5711 180.752 33.1666 184.429 40.4486L191.927 55.373H197.695L190.197 40.016C186.015 30.7153 181.761 25.0195 173.254 25.0195C164.89 25.0195 158.041 31.8689 158.041 40.2323C158.041 48.5957 164.89 55.4451 173.254 55.4451C175.561 55.4451 181.257 54.9404 184.573 50.3261L184.645 50.254L182.05 45.135L181.906 45.3513C180.175 48.4515 176.57 50.6145 173.254 50.6145C167.991 50.6145 163.593 46.0723 163.593 40.6649C163.52 35.1133 167.991 30.5711 173.254 30.5711Z" fill="#174286"/>
<path d="M75.3439 13.3392L76.1369 17.593L56.7425 45.2067L39.0784 20.1164C36.4108 16.2952 32.0127 13.8439 27.0379 13.8439C18.8908 13.8439 12.2577 20.4769 12.2577 28.6241C12.2577 36.7712 18.8908 43.4042 27.0379 43.4042C32.3011 43.4042 36.8433 40.6645 39.511 36.5549L43.1159 41.746C39.2947 46.4324 33.5268 49.3884 27.0379 49.3884C15.5743 49.3884 6.3457 40.0877 6.3457 28.6962C6.3457 17.3767 16.079 8.00391 27.0379 8.00391C34.0315 8.00391 40.2319 11.4646 43.981 16.7999L56.7425 34.9687L71.3064 14.2044L75.3439 13.3392Z" fill="white"/>
<path d="M26.5325 76.3499C29.6327 76.3499 30.9305 77.864 33.0213 82.1178L37.4193 90.7696H40.8079L36.4099 81.8294C34.0307 76.422 31.5073 73.1055 26.6046 73.1055C21.774 73.1055 17.8086 77.0709 17.8086 81.9015C17.8086 86.7321 21.774 90.6975 26.6046 90.6975C27.9023 90.6975 31.2188 90.4091 33.1655 87.7414L31.6515 84.7854L31.5794 84.9296C30.57 86.7321 28.4791 87.9577 26.5325 87.9577C23.5044 87.9577 20.9088 85.2901 20.9088 82.1899C20.9088 79.0896 23.5044 76.3499 26.5325 76.3499Z" fill="#174286"/>
<path d="M72.8919 76.3499C75.9921 76.3499 77.2899 77.864 79.3807 82.1178L83.7788 90.7696H87.1674L82.7694 81.8294C80.3901 76.422 77.8667 73.1055 72.964 73.1055C68.1334 73.1055 64.168 77.0709 64.168 81.9015C64.168 86.7321 68.1334 90.6975 72.964 90.6975C74.2618 90.6975 77.5783 90.4091 79.525 87.7414L78.0109 84.7854L77.9387 84.9296C76.9294 86.7321 74.8385 87.9577 72.8919 87.9577C69.8637 87.9577 67.2682 85.2901 67.2682 82.1899C67.2682 79.0896 69.8637 76.3499 72.8919 76.3499Z" fill="#174286"/>
<path d="M60.9236 90.553H58.0396V73.754H60.9236V90.553ZM61.5004 67.4094C61.5004 68.563 60.5631 69.4281 59.4816 69.4281C58.4001 69.4281 57.4629 68.563 57.4629 67.4094C57.4629 66.3279 58.4001 65.3906 59.4816 65.3906C60.5631 65.3906 61.5004 66.3279 61.5004 67.4094Z" fill="#174286"/>
<path d="M50.6118 77.6519C50.2513 76.7867 49.3861 75.9216 48.3046 75.9216C47.2952 75.9216 46.2137 76.7146 46.2137 77.7961C46.2137 79.3102 48.1604 79.887 50.1071 80.7521C52.0537 81.5452 54.0004 82.7709 54.0004 85.5827C54.0004 88.7551 51.4048 91.0622 48.3046 91.0622C45.4928 91.0622 43.2578 89.4761 42.3926 86.8084L44.916 85.7269C45.637 87.3131 46.43 88.3946 48.3767 88.3946C49.8908 88.3946 51.1165 87.3852 51.1165 85.799C51.1165 82.0499 43.5461 83.3477 43.5461 78.0124C43.5461 75.2006 45.8533 73.2539 48.5209 73.2539C50.4676 73.2539 52.27 74.6238 52.991 76.3541L50.6118 77.6519Z" fill="#174286"/>
<path d="M50.6118 77.6519C50.2513 76.7867 49.3861 75.9216 48.3046 75.9216C47.2952 75.9216 46.2137 76.7146 46.2137 77.7961C46.2137 79.3102 48.1604 79.887 50.1071 80.7521C52.0537 81.5452 54.0004 82.7709 54.0004 85.5827C54.0004 88.7551 51.4048 91.0622 48.3046 91.0622C45.4928 91.0622 43.2578 89.4761 42.3926 86.8084L44.916 85.7269C45.637 87.3131 46.43 88.3946 48.3767 88.3946C49.8908 88.3946 51.1165 87.3852 51.1165 85.799C51.1165 82.0499 43.5461 83.3477 43.5461 78.0124C43.5461 75.2006 45.8533 73.2539 48.5209 73.2539C50.4676 73.2539 52.27 74.6238 52.991 76.3541L50.6118 77.6519Z" fill="#174286"/>
<path d="M123.289 76.4241C126.389 76.4241 127.687 77.9382 129.777 82.192L134.175 90.8438H137.564L133.238 81.9036C130.859 76.4962 128.335 73.1797 123.433 73.1797C118.602 73.1797 114.637 77.1451 114.637 81.9757C114.637 86.8063 118.602 90.7717 123.433 90.7717C124.731 90.7717 128.047 90.4833 129.994 87.8157L128.48 84.8596L128.407 85.0038C127.398 86.8063 125.307 88.032 123.361 88.032C120.332 88.032 117.737 85.3643 117.737 82.2641C117.737 79.1638 120.26 76.4241 123.289 76.4241Z" fill="#174286"/>
<path d="M160.492 90.6272H157.608V73.8283H160.492V90.6272ZM161.141 67.4836C161.141 68.6372 160.204 69.5023 159.122 69.5023C158.041 69.5023 157.104 68.6372 157.104 67.4836C157.104 66.4021 158.041 65.4648 159.122 65.4648C160.204 65.4648 161.141 66.4021 161.141 67.4836Z" fill="#174286"/>
<path d="M160.492 90.6272H157.608V73.8283H160.492V90.6272ZM161.141 67.4836C161.141 68.6372 160.204 69.5023 159.122 69.5023C158.041 69.5023 157.104 68.6372 157.104 67.4836C157.104 66.4021 158.041 65.4648 159.122 65.4648C160.204 65.4648 161.141 66.4021 161.141 67.4836Z" fill="#174286"/>
<path d="M185.293 90.6272H182.409V73.8283H185.293V90.6272ZM185.942 67.4836C185.942 68.6372 185.004 69.5023 183.923 69.5023C182.842 69.5023 181.904 68.6372 181.904 67.4836C181.904 66.4021 182.842 65.4648 183.923 65.4648C185.004 65.4648 185.942 66.4021 185.942 67.4836Z" fill="#174286"/>
<path d="M185.293 90.6272H182.409V73.8283H185.293V90.6272ZM185.942 67.4836C185.942 68.6372 185.004 69.5023 183.923 69.5023C182.842 69.5023 181.904 68.6372 181.904 67.4836C181.904 66.4021 182.842 65.4648 183.923 65.4648C185.004 65.4648 185.942 66.4021 185.942 67.4836Z" fill="#174286"/>
<path d="M141.891 82.263C141.891 79.2348 144.414 76.7114 147.442 76.7114H152.561V73.5391H147.226C142.395 73.5391 138.502 77.4324 138.502 82.263C138.502 87.0936 142.395 90.9869 147.226 90.9869H152.561V87.8146H147.442C144.342 87.8146 141.891 85.3632 141.891 82.263Z" fill="#174286"/>
<path d="M194.017 82.263C194.017 79.2348 196.541 76.7114 199.569 76.7114H204.688V73.5391H199.353C194.522 73.5391 190.629 77.4324 190.629 82.263C190.629 87.0936 194.522 90.9869 199.353 90.9869H204.688V87.8146H199.569C196.469 87.8146 194.017 85.3632 194.017 82.263Z" fill="#174286"/>
<path d="M99.0626 74.2586C103.461 72.0956 108.796 73.8981 110.959 78.2961C113.122 82.6941 111.247 88.1736 106.921 90.3365C105.912 90.8412 102.668 91.7064 99.8557 90.4086V87.741C101.658 88.8224 104.11 88.9666 105.912 88.1015C108.868 86.6595 110.094 82.8383 108.58 79.8101C107.066 76.782 103.316 75.4842 100.36 76.9262C97.3323 78.4403 96.8276 80.6753 96.8276 85.4338V99.9977H94.0878V86.6595C93.7994 80.6032 94.5925 76.4936 99.0626 74.2586Z" fill="#174286"/>
<path d="M99.0626 74.2586C103.461 72.0956 108.796 73.8981 110.959 78.2961C113.122 82.6941 111.247 88.1736 106.921 90.3365C105.912 90.8412 102.668 91.7064 99.8557 90.4086V87.741C101.658 88.8224 104.11 88.9666 105.912 88.1015C108.868 86.6595 110.094 82.8383 108.58 79.8101C107.066 76.782 103.316 75.4842 100.36 76.9262C97.3323 78.4403 96.8276 80.6753 96.8276 85.4338V99.9977H94.0878V86.6595C93.7994 80.6032 94.5925 76.4936 99.0626 74.2586Z" fill="#174286"/>
<path d="M179.022 64.4556C177.291 63.4463 175.128 63.23 173.254 64.1672C170.226 65.6813 169.721 67.9164 169.721 72.6749V90.5553H166.981V73.9005C166.765 67.9164 167.486 63.7346 171.956 61.5717C174.912 60.1297 178.301 60.4181 180.896 62.1485L179.022 64.4556Z" fill="#174286"/>
<path d="M176.135 76.4215H168.709V73.7539H176.135V76.4215Z" fill="#174286"/>
</svg>
