<svg width="398" height="100" viewBox="0 0 398 100" fill="none" xmlns="http://www.w3.org/2000/svg">
<path d="M97.6152 12.351L73.9658 16.5616L79.8606 9.47379L97.1941 6.03518L101.475 0.842123L106.247 0L107.089 4.77202L103.72 10.5966L106.387 28.0705L101.756 36.0004L97.6152 12.351Z" fill="#024089"/>
<path d="M70.9487 70.3854L97.1946 32.9814L95.2998 22.1041L71.0188 56.701L48.9133 25.262C45.5449 20.4901 40.0711 17.4023 33.8254 17.4023C23.6499 17.4023 15.3691 25.6831 15.3691 35.8587C15.3691 46.0342 23.6499 54.315 33.8254 54.315C40.3518 54.315 46.1063 50.8764 49.4046 45.7535L44.2115 38.3148C43.0887 43.0167 38.8781 46.5255 33.8254 46.5255C27.9306 46.5255 23.1587 41.7535 23.1587 35.8587C23.1587 29.9639 27.9306 25.1919 33.8254 25.1919C37.4044 25.1919 40.6325 27.0165 42.5273 29.7533L70.9487 70.3854Z" fill="#DA062B"/>
<path d="M70.9481 43.7198L89.194 17.6844L78.3166 19.5792L70.9481 30.1056L61.4042 16.4213C55.2989 7.71943 45.1935 2.03516 33.7547 2.03516C15.0879 2.03516 0 17.123 0 35.7899C0 54.4568 15.0879 69.5447 33.7547 69.5447C43.5092 69.5447 52.3514 65.4043 58.4567 58.7375L53.8251 52.141C49.0531 57.9656 41.825 61.6849 33.6846 61.6849C19.3686 61.6849 7.78954 50.1058 7.78954 35.7899C7.78954 21.6143 20.0002 9.8949 33.6846 9.8949C42.4566 9.8949 50.2461 14.2458 54.9479 20.9827L70.9481 43.7198Z" fill="#007859"/>
<path d="M94.3175 16.7719L95.2999 22.1053L71.019 56.7022L48.9134 25.2633C45.545 20.4913 40.0712 17.4035 33.8256 17.4035C23.65 17.4035 15.3693 25.6843 15.3693 35.8599C15.3693 46.0354 23.65 54.3162 33.8256 54.3162C40.3519 54.3162 46.1064 50.8776 49.4047 45.7547L53.8959 52.2109C49.124 58.0356 41.8958 61.7549 33.7554 61.7549C19.4394 61.7549 7.86035 50.1758 7.86035 35.8599C7.86035 21.6843 20.071 9.96484 33.7554 9.96484C42.5274 9.96484 50.317 14.3158 55.0188 21.0527L71.019 43.7898L89.2648 17.7544L94.3175 16.7719Z" fill="white"/>
<path d="M156.282 39.4375C147.931 39.4375 141.194 46.2446 141.194 54.5254C141.194 62.8764 148.001 69.6835 156.352 69.6835C162.107 69.6835 167.651 66.1045 170.107 60.7711L170.177 60.6307H164.423L164.352 60.7009C162.598 63.0869 159.581 64.4904 156.282 64.4904C152.282 64.4904 148.844 62.4553 147.3 59.2272L147.229 59.0167C146.528 57.6132 146.387 56.0693 146.387 54.5254C146.387 52.771 146.738 51.2973 147.37 50.0341C148.914 46.7359 152.212 44.8411 156.352 44.8411C160.984 44.8411 164.423 47.2972 165.896 51.578L166.037 51.9991H151.019C151.019 51.9991 150.738 52.9114 150.738 54.5956C150.738 55.7184 150.949 56.5605 150.949 56.6307H171.44V55.8588C171.37 52.4201 171.23 51.2973 170.458 49.2622C168.353 43.4375 162.528 39.4375 156.282 39.4375Z" fill="#024089"/>
<path d="M256.353 44.8448C261.336 44.8448 265.336 48.915 265.336 53.8274V68.8451H270.529V53.5467C270.529 45.7571 264.143 39.3711 256.353 39.3711C248.564 39.3711 242.178 45.7571 242.178 53.5467V68.8451H247.371V53.8274C247.371 48.915 251.441 44.8448 256.353 44.8448Z" fill="#024089"/>
<path d="M348.074 50.1733L357.758 40.2785H364.495L352.916 51.7874L368.004 68.8402H361.338L349.408 55.3664L348.074 56.6997V68.8402H343.021V18.7344H348.074V50.1733Z" fill="#024089"/>
<path d="M289.968 44.7005C284.495 44.7005 280.074 49.1216 280.074 54.5953C280.074 60.0691 284.495 64.4902 289.968 64.4902C295.442 64.4902 299.863 60.0691 299.863 54.5953C299.863 49.1216 295.442 44.7005 289.968 44.7005ZM305.197 54.5251C305.197 62.9463 298.39 69.7534 289.968 69.7534C281.547 69.7534 274.74 62.9463 274.74 54.5251C274.74 46.104 281.547 39.2969 289.968 39.2969C298.39 39.2969 305.197 46.1742 305.197 54.5251Z" fill="#024089"/>
<path d="M132.141 69.7567C123.72 69.7567 116.913 62.9496 116.913 54.5285V28.9844H122.246C122.246 28.9844 122.246 29.4756 122.246 40.2126H132.141V45.5459H122.246C122.246 47.6512 122.246 54.5285 122.246 54.5285C122.246 60.0022 126.668 64.4234 132.141 64.4234C134.106 64.4234 135.931 63.862 137.405 62.8795L140.773 67.0199C138.387 68.7743 135.369 69.7567 132.141 69.7567Z" fill="#024089"/>
<path d="M175.861 54.5251C175.861 46.104 182.668 39.2969 191.09 39.2969C195.651 39.2969 199.721 41.2618 202.458 44.4198L199.581 49.4724C197.827 46.5952 194.669 44.6303 191.09 44.6303C185.616 44.6303 181.195 49.0514 181.195 54.5251C181.195 59.9989 185.616 64.42 191.09 64.42C194.739 64.42 197.897 62.455 199.581 59.5778L202.458 64.6305C199.651 67.7884 195.581 69.7534 191.09 69.7534C182.668 69.7534 175.861 62.9463 175.861 54.5251Z" fill="#024089"/>
<path d="M222.107 39.4404C218.669 39.4404 215.581 40.6334 213.125 42.6685V40.4229V18.8086H207.861V40.4229V68.9144H207.931H213.125V53.9669C213.125 48.9844 217.195 44.9843 222.107 44.9843C227.09 44.9843 231.09 49.0545 231.09 53.9669V68.9144H236.283V53.616C236.283 45.7562 229.967 39.4404 222.107 39.4404Z" fill="#024089"/>
<path d="M397.828 40.2773H392.635V55.2249C392.635 60.2074 388.564 64.2074 383.652 64.2074C378.67 64.2074 374.67 60.1372 374.67 55.2249V40.2773H369.477V55.5758C369.477 63.3653 375.863 69.7514 383.652 69.7514C387.021 69.7514 390.038 68.5583 392.494 66.6636V70.383C392.494 75.8567 388.073 80.2778 382.599 80.2778C379.722 80.2778 377.126 79.0848 375.301 77.1199L371.512 80.9094C374.249 83.8568 378.178 85.6814 382.529 85.6814C390.95 85.6814 397.758 78.8743 397.758 70.4531V55.7161V40.2773H397.828Z" fill="#024089"/>
<path d="M330.951 51.8587C330.529 51.7183 330.179 51.5078 329.758 51.3675C327.021 50.2446 324.635 49.2622 324.635 47.2271C324.635 45.613 326.319 44.4902 327.793 44.4902C329.407 44.4902 330.74 45.8235 331.301 47.1569L331.442 47.5078L336.073 45.1218L335.933 44.8411C334.6 41.6831 331.372 39.4375 328.143 39.4375C323.161 39.4375 319.442 43.0165 319.442 47.7183C319.442 52.771 323.371 54.3851 326.81 55.8588C329.687 57.0517 332.143 58.1044 332.143 60.7009C332.143 63.0167 330.389 64.7009 327.933 64.7009C325.056 64.7009 323.722 63.0869 322.529 60.4202L322.389 60.1395L317.547 62.1746L317.617 62.4553C319.161 67.0869 323.021 69.8238 327.863 69.8238C333.407 69.8238 337.758 65.6132 337.758 60.2798C337.687 55.2973 334.249 53.192 330.951 51.8587Z" fill="#024089"/>
<path d="M134.037 87.5828C135.51 87.5828 136.773 88.7758 136.773 90.3197V94.8811H138.317V90.2495C138.317 87.8635 136.423 85.9688 134.037 85.9688C131.651 85.9688 129.756 87.8635 129.756 90.2495V94.8811H131.3V90.3197C131.3 88.846 132.493 87.5828 134.037 87.5828Z" fill="#024089"/>
<path d="M127.09 94.8742L124.213 89.1899C123.441 87.7162 121.686 87.1548 120.212 87.8565C118.739 88.6285 118.177 90.3829 118.879 91.8566C119.651 93.3303 121.405 93.8917 122.879 93.19C123.441 92.9093 123.862 92.4882 124.142 91.9268L124.984 93.5408C124.634 93.9619 124.142 94.3128 123.651 94.5935C121.405 95.7163 118.598 94.804 117.476 92.5584C116.353 90.3127 117.265 87.5057 119.511 86.3829C121.756 85.26 124.563 86.1723 125.686 88.4179L128.914 94.804L127.09 94.8742Z" fill="#024089"/>
<path d="M148.002 86.0352C145.476 86.0352 143.44 88.0703 143.44 90.5966C143.44 93.123 145.476 95.1581 148.002 95.1581C149.756 95.1581 151.44 94.1054 152.142 92.4914V92.4212H150.388C149.826 93.1229 148.914 93.544 147.932 93.544C146.739 93.544 145.686 92.9124 145.195 91.9299V91.8598C144.984 91.4387 144.914 90.9475 144.914 90.5264C144.914 89.965 144.984 89.544 145.195 89.1931C145.686 88.2106 146.668 87.579 147.932 87.579C149.335 87.579 150.388 88.351 150.809 89.6141L150.879 89.7545H146.318C146.318 89.7545 146.247 90.0352 146.247 90.5264C146.247 90.8773 146.318 91.0878 146.318 91.158H152.493V90.9475C152.493 89.8948 152.423 89.544 152.212 88.9124C151.651 87.2281 149.897 86.0352 148.002 86.0352Z" fill="#024089"/>
<path d="M182.177 85.9688L179.159 92.1443L176.072 85.9688H174.177L179.159 95.3022L184.072 85.9688H182.177Z" fill="#024089"/>
<path d="M158.668 87.5828C160.142 87.5828 161.405 88.7758 161.405 90.3197V94.8811H162.949V90.2495C162.949 87.8635 161.054 85.9688 158.668 85.9688C156.282 85.9688 154.388 87.8635 154.388 90.2495V94.8811H155.932V90.3197C155.932 88.846 157.125 87.5828 158.668 87.5828Z" fill="#024089"/>
<path d="M174.669 94.8742L171.792 89.1899C171.02 87.7162 169.265 87.1548 167.792 87.8565C166.318 88.6285 165.756 90.3829 166.458 91.8566C167.23 93.3303 168.985 93.8917 170.458 93.19C171.02 92.9093 171.441 92.4882 171.721 91.9268L172.564 93.5408C172.213 93.9619 171.722 94.3128 171.23 94.5935C168.985 95.7163 166.178 94.804 165.055 92.5584C163.932 90.3127 164.844 87.5057 167.09 86.3829C169.335 85.26 172.143 86.1723 173.265 88.4179L176.493 94.804L174.669 94.8742Z" fill="#024089"/>
<path d="M309.056 87.5828C310.53 87.5828 311.793 88.7758 311.793 90.3197V94.8811H313.337V90.2495C313.337 87.8635 311.442 85.9688 309.056 85.9688C306.67 85.9688 304.775 87.8635 304.775 90.2495V94.8811H306.319V90.3197C306.319 88.846 307.583 87.5828 309.056 87.5828Z" fill="#024089"/>
<path d="M274.318 85.8945C272.844 85.8945 271.581 86.5963 270.809 87.7191C270.037 86.5963 268.774 85.8945 267.3 85.8945C264.914 85.8945 263.02 87.7893 263.02 90.1753V94.8069H264.563V90.2455C264.563 88.7718 265.756 87.5086 267.3 87.5086C268.774 87.5086 270.037 88.7016 270.037 90.2455V94.8069H270.809H271.581V90.2455C271.581 88.7718 272.774 87.5086 274.318 87.5086C275.862 87.5086 277.055 88.7016 277.055 90.2455V94.8069H278.599V90.1753C278.599 87.8594 276.704 85.8945 274.318 85.8945Z" fill="#024089"/>
<path d="M256.704 87.5086C255.019 87.5086 253.686 88.8419 253.686 90.5261C253.686 92.2104 255.019 93.5438 256.704 93.5438C258.388 93.5438 259.721 92.2104 259.721 90.5261C259.651 88.8419 258.318 87.5086 256.704 87.5086ZM261.265 90.5261C261.265 93.0525 259.23 95.1578 256.634 95.1578C254.107 95.1578 252.002 93.1227 252.002 90.5261C252.002 87.9998 254.037 85.8945 256.634 85.8945C259.23 85.8945 261.265 87.9998 261.265 90.5261Z" fill="#024089"/>
<path d="M301.759 94.8742L298.882 89.1899C298.11 87.7162 296.355 87.1548 294.881 87.8565C293.408 88.5583 292.846 90.3829 293.548 91.8566C294.32 93.3303 296.074 93.8917 297.548 93.19C298.11 92.9093 298.531 92.4882 298.811 91.9268L299.653 93.5408C299.303 93.9619 298.811 94.3128 298.32 94.5935C296.074 95.7163 293.267 94.804 292.145 92.5584C291.022 90.3127 291.934 87.5057 294.18 86.3829C296.425 85.26 299.232 86.1723 300.355 88.4179L303.583 94.804L301.759 94.8742Z" fill="#024089"/>
<path d="M283.582 94.8069C284.073 95.0174 284.705 95.1578 285.266 95.1578C287.793 95.1578 289.898 93.1227 289.898 90.5261C289.898 87.9998 287.863 85.8945 285.266 85.8945C282.74 85.8945 280.635 87.9296 280.635 90.5261V99.7193H282.249V90.5261C282.249 88.8419 283.582 87.5086 285.266 87.5086C286.951 87.5086 288.284 88.8419 288.284 90.5261C288.284 92.2104 286.951 93.5438 285.266 93.5438C284.635 93.5438 284.073 93.3332 283.582 93.0525V94.8069Z" fill="#024089"/>
<path d="M242.74 90.5261C242.74 87.9998 244.775 85.8945 247.372 85.8945C248.775 85.8945 249.968 86.5261 250.811 87.4384L249.968 88.9823C249.477 88.1402 248.495 87.5086 247.372 87.5086C245.688 87.5086 244.354 88.8419 244.354 90.5261C244.354 92.2104 245.688 93.5438 247.372 93.5438C248.495 93.5438 249.407 92.9823 249.968 92.07L250.811 93.6139C249.968 94.5964 248.705 95.1578 247.372 95.1578C244.775 95.1578 242.74 93.0525 242.74 90.5261Z" fill="#024089"/>
<path d="M323.724 86.1758H322.18V90.7372C322.18 92.2109 320.987 93.4741 319.443 93.4741C317.899 93.4741 316.706 92.2811 316.706 90.7372V86.1758H315.162V90.8074C315.162 93.1934 317.057 95.0881 319.443 95.0881C320.425 95.0881 321.408 94.7373 322.11 94.1758V95.2987C322.11 96.9829 320.776 98.3163 319.092 98.3163C318.25 98.3163 317.408 97.9654 316.917 97.3338L315.794 98.4566C316.636 99.3689 317.829 99.8601 319.162 99.8601C321.688 99.8601 323.794 97.825 323.794 95.2285V90.7372V86.1758H323.724Z" fill="#024089"/>
<path d="M221.546 93.4038C220.073 93.4038 218.809 92.2108 218.809 90.6669V86.1055H217.266V90.7371C217.266 93.1231 219.16 95.0179 221.546 95.0179C223.932 95.0179 225.827 93.1231 225.827 90.7371V86.1055H224.283V90.6669C224.283 92.2108 223.02 93.4038 221.546 93.4038Z" fill="#024089"/>
<path d="M211.161 87.5086C209.477 87.5086 208.143 88.8419 208.143 90.5261C208.143 92.2104 209.477 93.5438 211.161 93.5438C212.845 93.5438 214.179 92.2104 214.179 90.5261C214.179 88.8419 212.845 87.5086 211.161 87.5086ZM215.793 90.5261C215.793 93.0525 213.758 95.1578 211.161 95.1578C208.635 95.1578 206.529 93.1227 206.529 90.5261C206.529 87.9998 208.564 85.8945 211.161 85.8945C213.687 85.8945 215.793 87.9998 215.793 90.5261Z" fill="#024089"/>
<path d="M230.18 94.8069C230.671 95.0174 231.303 95.1578 231.864 95.1578C234.39 95.1578 236.496 93.1227 236.496 90.5261C236.496 87.9998 234.461 85.8945 231.864 85.8945C229.338 85.8945 227.232 87.9296 227.232 90.5261V99.7193H228.847V90.5261C228.847 88.8419 230.18 87.5086 231.864 87.5086C233.548 87.5086 234.882 88.8419 234.882 90.5261C234.882 92.2104 233.548 93.5438 231.864 93.5438C231.233 93.5438 230.671 93.3332 230.18 93.0525V94.8069Z" fill="#024089"/>
<path d="M189.125 98.5263C189.967 99.4385 191.16 99.9999 192.493 99.9999C195.019 99.9999 197.125 97.8947 197.125 95.3683V90.5261C197.125 87.9998 195.019 85.8945 192.493 85.8945C189.967 85.8945 187.861 87.9998 187.861 90.5261C187.861 93.0525 189.967 95.1578 192.493 95.1578C193.125 95.1578 193.686 95.0174 194.177 94.8069V92.9823C193.686 93.3332 193.125 93.5438 192.493 93.5438C190.809 93.5438 189.475 92.2104 189.475 90.5261C189.475 88.8419 190.809 87.5086 192.493 87.5086C194.177 87.5086 195.511 88.8419 195.511 90.5261V95.3683C195.511 97.0526 194.177 98.3859 192.493 98.3859C191.651 98.3859 190.809 98.035 190.247 97.4034L189.125 98.5263Z" fill="#024089"/>
<path d="M206.038 87.5088C205.266 86.5965 204.073 86.0352 202.81 86.0352C200.424 86.0352 198.529 87.9299 198.529 90.3159V94.8773H200.073V90.3861C200.073 88.9124 201.266 87.6492 202.81 87.6492C203.652 87.6492 204.424 88.0001 204.915 88.6317L206.038 87.5088Z" fill="#024089"/>
</svg>
